<svg width="52" height="52" viewBox="0 0 52 52" fill="none" xmlns="http://www.w3.org/2000/svg">
<circle cx="26" cy="26" r="25.5" fill="#363636" stroke="#868686"/>
<path d="M23.1537 24.9355C22.7188 24.1797 22.3999 23.6253 22.182 23.2117C21.9529 22.777 21.8749 22.5675 21.8615 22.4755C21.7154 21.4715 22.5699 20.6027 23.5604 20.7483C23.6512 20.7616 23.8572 20.8397 24.284 21.0694C24.6902 21.2881 25.2344 21.6081 25.9765 22.0446L29.0194 23.8346C29.999 24.4109 30.6965 24.8221 31.1794 25.186C31.6632 25.5506 31.8464 25.8074 31.9073 26.0403C31.975 26.2992 31.9734 26.5722 31.9026 26.8313C31.8389 27.0644 31.6526 27.322 31.1644 27.6886C30.6772 28.0546 29.9748 28.4686 28.9883 29.049L25.8989 30.8662C25.1935 31.2812 24.6763 31.5854 24.2905 31.7942C23.8853 32.0135 23.6899 32.09 23.604 32.1048C22.5918 32.2784 21.7214 31.3885 21.9007 30.3633C21.9159 30.2763 21.9929 30.0788 22.2124 29.6696C22.4214 29.2801 22.7255 28.758 23.1403 28.0459C23.1466 28.035 23.1529 28.0242 23.1591 28.0137C23.2991 27.7734 23.3956 27.6078 23.4646 27.437C23.7103 26.8292 23.7135 26.1503 23.4735 25.5442L23.0126 25.735L23.4735 25.5442C23.4061 25.3738 23.3107 25.2082 23.1723 24.9678C23.1662 24.9571 23.16 24.9464 23.1537 24.9355Z" fill="#393737" stroke="#868686"/>
</svg>
