<svg width="18" height="10" viewBox="0 0 18 10" fill="none" xmlns="http://www.w3.org/2000/svg">
<path d="M5.25008 9.99967C4.03451 9.99967 2.86872 9.51679 2.00918 8.65725C1.14963 7.79771 0.666748 6.63192 0.666748 5.41634C0.666748 4.20077 1.14963 3.03498 2.00918 2.17543C2.86872 1.31589 4.03451 0.833008 5.25008 0.833008H14.0001C14.8841 0.833008 15.732 1.1842 16.3571 1.80932C16.9822 2.43444 17.3334 3.28229 17.3334 4.16634C17.3334 5.0504 16.9822 5.89824 16.3571 6.52336C15.732 7.14849 14.8841 7.49967 14.0001 7.49967H6.91675C6.36421 7.49967 5.83431 7.28018 5.44361 6.88948C5.05291 6.49878 4.83341 5.96888 4.83341 5.41634C4.83341 4.86381 5.05291 4.3339 5.44361 3.9432C5.83431 3.5525 6.36421 3.33301 6.91675 3.33301H13.1667V4.58301H6.91675C6.69573 4.58301 6.48377 4.67081 6.32749 4.82709C6.17121 4.98337 6.08341 5.19533 6.08341 5.41634C6.08341 5.63736 6.17121 5.84932 6.32749 6.0056C6.48377 6.16188 6.69573 6.24967 6.91675 6.24967H14.0001C14.2737 6.24967 14.5446 6.19579 14.7973 6.09109C15.0501 5.98639 15.2798 5.83294 15.4732 5.63948C15.6667 5.44602 15.8201 5.21636 15.9248 4.9636C16.0295 4.71084 16.0834 4.43993 16.0834 4.16634C16.0834 3.89275 16.0295 3.62185 15.9248 3.36908C15.8201 3.11632 15.6667 2.88666 15.4732 2.6932C15.2798 2.49975 15.0501 2.34629 14.7973 2.24159C14.5446 2.13689 14.2737 2.08301 14.0001 2.08301H5.25008C4.36603 2.08301 3.51818 2.4342 2.89306 3.05932C2.26794 3.68444 1.91675 4.53229 1.91675 5.41634C1.91675 6.3004 2.26794 7.14824 2.89306 7.77336C3.51818 8.39849 4.36603 8.74967 5.25008 8.74967H13.1667V9.99967H5.25008Z" fill="#71717A"/>
</svg>
